<svg width="80" height="68" viewBox="0 0 80 68" fill="none" xmlns="http://www.w3.org/2000/svg">
<path d="M40.0444 6.53354e-06C43.8609 -0.00254568 47.6405 0.742661 51.167 2.19301C54.6936 3.64335 57.8978 5.77039 60.5965 8.45246C63.2952 11.1345 65.4354 14.319 66.8948 17.8238C68.3541 21.3286 69.1039 25.0849 69.1014 28.8779C69.1016 30.0394 69.0299 31.1998 68.8865 32.3526C67.9752 31.3749 66.9675 30.4905 65.8786 29.7126C65.8786 29.4279 65.8786 29.1497 65.8786 28.865C65.8924 22.0521 63.1825 15.5128 58.345 10.6857C55.9496 8.29554 53.1041 6.39767 49.9708 5.10045C46.8375 3.80323 43.4777 3.13206 40.0834 3.12526C33.2283 3.11154 26.6485 5.80477 21.7914 10.6125C16.9343 15.4202 14.1979 21.9486 14.1841 28.7614L12.1593 30.6702C12.0876 30.7349 12.0225 30.7997 11.9574 30.8708C11.6775 31.162 11.404 31.4532 11.1436 31.7573C11.0525 30.8126 11.0004 29.855 11.0004 28.8844C10.9969 25.0919 11.7457 21.336 13.2039 17.8313C14.662 14.3266 16.8009 11.1419 19.4983 8.45932C22.1958 5.77674 25.3987 3.64886 28.9242 2.19734C32.4496 0.745831 36.2284 -0.000845322 40.0444 6.53354e-06ZM41.5483 25.8821C42.1264 26.1716 42.6079 26.621 42.9351 27.1762H47.6553C47.5699 26.9208 47.5666 26.6453 47.6461 26.388C47.7256 26.1308 47.8838 25.9045 48.0987 25.7408C48.3135 25.5771 48.5745 25.484 48.8451 25.4745C49.1157 25.465 49.3826 25.5396 49.6085 25.6879L52.4146 27.8362C52.5676 27.9527 52.6918 28.1025 52.7775 28.2741C52.8633 28.4457 52.9084 28.6345 52.9094 28.8261C52.9089 29.0169 52.864 29.205 52.7781 29.3756C52.6923 29.5462 52.5679 29.6948 52.4146 29.8097L49.6085 31.9643C49.3826 32.1127 49.1157 32.1873 48.8451 32.1778C48.5745 32.1683 48.3135 32.0752 48.0987 31.9115C47.8838 31.7478 47.7256 31.5215 47.6461 31.2642C47.5666 31.007 47.5699 30.7315 47.6553 30.4761H42.9351C42.6828 30.9099 42.3351 31.2814 41.918 31.5629C41.5009 31.8444 41.0252 32.0286 40.5265 32.1018C40.0277 32.1749 39.5187 32.1351 39.0376 31.9853C38.5565 31.8356 38.1157 31.5797 37.748 31.2368C37.3804 30.894 37.0954 30.473 36.9145 30.0053C36.7335 29.5377 36.6612 29.0354 36.703 28.5361C36.7447 28.0367 36.8995 27.5532 37.1556 27.1217C37.4118 26.6901 37.7628 26.3217 38.1823 26.0438L38.2214 19.6251C38.0094 19.7189 37.7753 19.7523 37.5454 19.7215C37.3154 19.6906 37.0986 19.5967 36.9193 19.4504C36.7891 19.3467 36.6809 19.2185 36.6009 19.073C36.5209 18.9276 36.4707 18.7678 36.4531 18.603C36.4356 18.4382 36.4511 18.2715 36.4987 18.1127C36.5462 17.9538 36.625 17.8059 36.7304 17.6775L38.9636 14.9404C39.0767 14.7985 39.22 14.6831 39.3832 14.6026C39.5464 14.522 39.7255 14.4783 39.9076 14.4745C40.1109 14.4696 40.3123 14.5135 40.4947 14.6025C40.6772 14.6915 40.8354 14.823 40.9559 14.9857L43.0588 17.8198C43.232 18.0397 43.3269 18.3106 43.3286 18.5898C43.3303 18.8691 43.2387 19.141 43.0682 19.363C42.8977 19.585 42.6579 19.7445 42.3864 19.8165C42.1149 19.8885 41.827 19.869 41.5679 19.761L41.5483 25.8821ZM52.7401 46.303C52.9387 46.617 53.0036 46.9966 52.9206 47.3582C52.8376 47.7198 52.6134 48.0339 52.2974 48.2312C51.9814 48.4286 51.5995 48.4931 51.2356 48.4106C50.8718 48.328 50.5558 48.1053 50.3572 47.7912L49.2309 46.0248C49.0491 45.7104 48.9968 45.3383 49.0849 44.9864C49.1729 44.6345 49.3946 44.3302 49.7033 44.137C50.0121 43.9439 50.3841 43.8769 50.7414 43.9502C51.0987 44.0234 51.4137 44.2313 51.6203 44.5301L52.7401 46.303ZM27.3486 11.5628C27.15 11.2488 27.0851 10.8692 27.1681 10.5076C27.2512 10.146 27.4753 9.83195 27.7913 9.6346C27.9478 9.53688 28.1221 9.47075 28.3043 9.43998C28.4864 9.40921 28.6729 9.4144 28.8531 9.45525C29.217 9.53777 29.5329 9.76055 29.7315 10.0746L30.8578 11.841C30.9566 11.9965 31.0236 12.1699 31.0549 12.3511C31.0863 12.5323 31.0814 12.7179 31.0406 12.8972C30.9998 13.0766 30.9238 13.2462 30.8171 13.3964C30.7103 13.5465 30.5748 13.6744 30.4184 13.7725C30.1024 13.9707 29.7201 14.036 29.3556 13.9541C28.9912 13.8722 28.6744 13.6498 28.4749 13.3357L27.3486 11.5628ZM20.3041 20.2074C19.9989 20.0218 19.776 19.7279 19.6804 19.3853C19.5847 19.0426 19.6234 18.6767 19.7887 18.3613C19.954 18.0459 20.2335 17.8046 20.5709 17.6861C20.9082 17.5676 21.2782 17.5807 21.6062 17.7227L23.4683 18.6998C23.7989 18.8714 24.0475 19.1665 24.1592 19.5203C24.2709 19.874 24.2367 20.2573 24.064 20.5859C23.8913 20.9146 23.5944 21.1616 23.2384 21.2726C22.8825 21.3836 22.4968 21.3496 22.1661 21.178L20.2976 20.2074H20.3041ZM61.5295 26.6779C61.7142 26.6707 61.8985 26.6997 62.0719 26.7633C62.2453 26.8268 62.4044 26.9237 62.5401 27.0484C62.6758 27.1731 62.7855 27.3231 62.8629 27.4899C62.9403 27.6567 62.9839 27.837 62.9911 28.0206C62.9984 28.2041 62.9692 28.3873 62.9053 28.5596C62.8413 28.7319 62.7438 28.8901 62.6184 29.025C62.4929 29.1598 62.342 29.2689 62.1741 29.3458C62.0063 29.4227 61.8249 29.466 61.6402 29.4732L59.5372 29.5573C59.3526 29.5645 59.1683 29.5355 58.9949 29.472C58.8215 29.4084 58.6624 29.3115 58.5266 29.1868C58.3909 29.0622 58.2812 28.9122 58.2038 28.7453C58.1264 28.5785 58.0829 28.3982 58.0756 28.2147C58.0683 28.0311 58.0975 27.848 58.1615 27.6756C58.2254 27.5033 58.3229 27.3452 58.4484 27.2103C58.5738 27.0754 58.7248 26.9664 58.8926 26.8895C59.0604 26.8126 59.2419 26.7693 59.4266 26.7621L61.5295 26.6779ZM57.5189 16.3251C57.6758 16.218 57.8528 16.1435 58.0394 16.106C58.2259 16.0685 58.4182 16.0689 58.6046 16.1072C58.791 16.1454 58.9677 16.2206 59.1241 16.3284C59.2805 16.4362 59.4134 16.5743 59.5148 16.7344C59.6162 16.8944 59.684 17.0732 59.7141 17.26C59.7442 17.4468 59.7361 17.6377 59.6901 17.8212C59.6442 18.0048 59.5614 18.1772 59.4468 18.3282C59.3321 18.4792 59.1879 18.6056 59.0229 18.6998L57.2455 19.8127C57.089 19.9109 56.9146 19.9774 56.7323 20.0086C56.55 20.0397 56.3632 20.0349 56.1828 19.9944C56.0023 19.9538 55.8316 19.8783 55.6805 19.7722C55.5294 19.6661 55.4008 19.5315 55.3021 19.376C55.2033 19.2205 55.1363 19.0472 55.105 18.8659C55.0736 18.6847 55.0785 18.4991 55.1193 18.3198C55.1601 18.1404 55.2361 17.9708 55.3428 17.8206C55.4496 17.6705 55.5851 17.5427 55.7415 17.4445L57.5189 16.3251ZM48.8337 9.31755C48.908 9.13648 49.0195 8.97283 49.1611 8.83706C49.3026 8.7013 49.4712 8.59642 49.6559 8.52914C49.8406 8.46187 50.0375 8.43367 50.2338 8.44637C50.4301 8.45907 50.6216 8.51238 50.796 8.60289C50.9704 8.69339 51.1239 8.8191 51.2465 8.97196C51.3692 9.12481 51.4584 9.30145 51.5084 9.49055C51.5585 9.67965 51.5682 9.87705 51.537 10.0701C51.5058 10.2632 51.4344 10.4476 51.3273 10.6116L50.3507 12.4622C50.1593 12.7554 49.8648 12.9672 49.5246 13.056C49.1845 13.1449 48.8232 13.1045 48.5115 12.9427C48.1997 12.7809 47.9599 12.5094 47.8389 12.1812C47.7179 11.853 47.7244 11.4918 47.8571 11.1681L48.8337 9.31755ZM37.7656 7.58345C37.751 7.21277 37.885 6.85149 38.1384 6.57907C38.3918 6.30664 38.7436 6.14541 39.1166 6.13082C39.4896 6.11623 39.8531 6.24949 40.1272 6.50129C40.4013 6.75308 40.5636 7.10278 40.5782 7.47345L40.6629 9.56343C40.657 9.92231 40.5131 10.2653 40.2607 10.522C40.0083 10.7787 39.6666 10.9296 39.3057 10.9437C38.9448 10.9578 38.5922 10.834 38.3203 10.5978C38.0484 10.3615 37.8779 10.0307 37.8438 9.67343L37.7656 7.58345ZM42.284 50.2888C42.2987 50.6595 42.1646 51.0208 41.9113 51.2932C41.6579 51.5656 41.306 51.7269 40.9331 51.7415C40.5601 51.7561 40.1966 51.6228 39.9225 51.371C39.6483 51.1192 39.4861 50.7695 39.4714 50.3988L39.3868 48.3024C39.394 47.9439 39.539 47.6018 39.7919 47.3461C40.0449 47.0904 40.3866 46.9406 40.7471 46.9274C41.1077 46.9142 41.4596 47.0385 41.7309 47.2749C42.0021 47.5113 42.1721 47.8419 42.2059 48.1989L42.3231 50.2888H42.284ZM74.9935 66.4651L63.8082 51.1171C55.4486 51.8288 48.0459 37.3025 54.0423 33.2132C61.3602 28.2438 72.6497 42.4401 67.5518 48.4124L79.271 63.5987C81.6734 66.7175 77.5848 70.011 75.0065 66.4651H74.9935ZM18.8066 45.9407C21.1309 46.3742 23.0516 45.8371 25.7535 42.9254L32.9933 35.7302C33.996 34.7078 32.2772 32.7667 31.0401 33.789L25.0959 39.5543C24.9918 39.675 24.8638 39.7732 24.7198 39.8427C24.5759 39.9121 24.4191 39.9514 24.2592 39.958C24.0993 39.9646 23.9398 39.9384 23.7905 39.881C23.6413 39.8237 23.5055 39.7364 23.3917 39.6246C23.2779 39.5128 23.1884 39.3789 23.129 39.2313C23.0695 39.0836 23.0412 38.9254 23.046 38.7664C23.0507 38.6075 23.0883 38.4512 23.1565 38.3073C23.2247 38.1634 23.3219 38.0351 23.4422 37.9302L29.5883 31.9579C30.6495 30.8579 29.0153 29.0073 27.7978 30.172C26.1051 31.8479 23.338 34.4684 21.6518 36.1443C21.5696 36.2712 21.4598 36.3782 21.3306 36.4573C21.2013 36.5365 21.0558 36.5858 20.9048 36.6017C20.7538 36.6176 20.6011 36.5997 20.458 36.5492C20.3149 36.4987 20.185 36.417 20.0779 36.3101C19.9708 36.2031 19.8892 36.0736 19.839 35.9312C19.7889 35.7887 19.7716 35.6369 19.7883 35.4869C19.805 35.3369 19.8553 35.1926 19.9355 35.0645C20.0158 34.9364 20.1239 34.8278 20.252 34.7467L26.359 28.8132C26.5243 28.6268 26.6361 28.3996 26.6826 28.1555C26.7292 27.9113 26.7088 27.6593 26.6235 27.4257C26.5383 27.1921 26.3914 26.9856 26.1982 26.8278C26.0051 26.6701 25.7727 26.5669 25.5256 26.5291C24.4579 26.2897 23.7547 27.2538 23.0255 27.9332L15.8638 34.5914C13.9106 36.6296 12.7843 38.7843 13.6567 41.0619C13.8403 41.4897 14.0788 41.892 14.3664 42.2589L0.791675 54.6758C0.547956 54.9026 0.352386 55.1755 0.216503 55.4785C0.0806201 55.7815 0.0071749 56.1085 0.000499904 56.4402C-0.00617509 56.7719 0.0540553 57.1016 0.177638 57.4098C0.301221 57.718 0.485654 57.9984 0.720058 58.2346L0.934909 58.4482C1.20236 58.7082 1.51933 58.9127 1.86727 59.0495C2.21522 59.1863 2.58713 59.2527 2.96123 59.2449C3.33533 59.237 3.70409 59.1551 4.04593 59.0039C4.38776 58.8526 4.69579 58.6351 4.95198 58.364L17.3222 45.1577C17.7604 45.5131 18.2649 45.7792 18.8066 45.9407ZM54.9017 53.7053C49.8049 56.7166 43.9032 58.1061 37.9887 57.6874C32.0743 57.2687 26.4304 55.0618 21.8146 51.3629C22.6196 51.234 23.4078 51.017 24.1649 50.7159C24.6113 50.5258 25.0461 50.3097 25.467 50.0688C26.9407 51.0693 28.5136 51.917 30.1612 52.5988C36.4978 55.1839 43.604 55.1839 49.9405 52.5988C50.7646 52.2577 51.5708 51.8755 52.356 51.4535C52.5513 51.6606 52.7597 51.8612 52.9615 52.0553C53.5773 52.6352 54.2297 53.1755 54.9147 53.6729L54.9017 53.7053Z" fill="black"/>
</svg>
